<?xml version="1.0" encoding="UTF-8"?>
<svg xmlns="http://www.w3.org/2000/svg" xmlns:xlink="http://www.w3.org/1999/xlink" width="256px" height="256px" viewBox="0 0 256 256" version="1.1">
<g id="surface1">
<path style=" stroke:none;fill-rule:nonzero;fill:rgb(0%,0%,0%);fill-opacity:1;" d="M 128.265625 62.800781 C 128.265625 57.203125 128.320312 51.804688 128.234375 46.40625 C 128.210938 44.75 128.769531 44.238281 130.410156 44.238281 C 144.136719 44.210938 157.863281 44.105469 171.585938 44.042969 C 174.53125 44.027344 174.535156 44.0625 174.539062 47.082031 C 174.546875 52.078125 174.613281 57.078125 174.523438 62.074219 C 174.492188 63.84375 175.109375 64.347656 176.835938 64.347656 C 181.164062 64.347656 185.488281 64.589844 189.820312 64.65625 C 191.125 64.675781 191.800781 65.03125 191.761719 66.46875 C 191.699219 68.800781 191.71875 71.136719 191.769531 73.464844 C 191.792969 74.589844 191.328125 74.960938 190.234375 75.007812 C 186.777344 75.15625 183.320312 75.519531 179.863281 75.546875 C 177.78125 75.5625 177.167969 76.378906 177.347656 78.3125 C 177.511719 80.097656 177.472656 81.902344 177.550781 83.699219 C 177.613281 85.117188 177.023438 85.707031 175.550781 85.730469 C 171.957031 85.785156 168.367188 86.070312 164.773438 86.089844 C 163.035156 86.097656 162.476562 86.679688 162.488281 88.421875 C 162.554688 99.617188 162.472656 110.8125 162.574219 122.007812 C 162.59375 124.074219 161.9375 124.839844 159.921875 124.964844 C 155.207031 125.257812 150.507812 125.816406 145.792969 126.082031 C 140.457031 126.378906 135.171875 125.441406 129.855469 125.183594 C 128.359375 125.109375 128.253906 124.152344 128.257812 122.976562 C 128.28125 115.78125 128.269531 108.582031 128.269531 101.386719 C 128.269531 88.589844 128.269531 75.796875 128.265625 62.800781 M 141.960938 74.613281 C 143.105469 74.203125 142.777344 73.207031 142.78125 72.402344 C 142.8125 68.273438 142.835938 64.144531 142.792969 60.015625 C 142.738281 54.527344 143.507812 55.417969 137.96875 55.324219 C 137.902344 55.320312 137.835938 55.328125 137.769531 55.324219 C 136.601562 55.21875 136.0625 55.699219 136.066406 56.917969 C 136.089844 62.3125 136.085938 67.707031 136.046875 73.097656 C 136.039062 74.109375 136.417969 74.582031 137.421875 74.59375 C 138.816406 74.605469 140.214844 74.632812 141.960938 74.613281 M 165.171875 64.238281 C 167.261719 63.597656 166.226562 61.859375 166.21875 60.699219 C 166.175781 54.261719 167.617188 55.449219 160.609375 55.324219 C 159.449219 55.304688 158.890625 55.753906 158.914062 56.96875 C 158.957031 58.894531 158.960938 60.828125 158.90625 62.753906 C 158.871094 64.015625 159.488281 64.375 160.625 64.320312 C 162.019531 64.257812 163.417969 64.273438 165.171875 64.238281 Z M 165.171875 64.238281 "/>
<path style=" stroke:none;fill-rule:nonzero;fill:rgb(0%,0%,0%);fill-opacity:1;" d="M 89.015625 122.136719 C 84.964844 121.867188 81.132812 122.707031 77.265625 122.527344 C 75.851562 122.460938 75.195312 123.089844 75.226562 124.550781 C 75.273438 126.816406 75.152344 129.085938 75.238281 131.347656 C 75.300781 133.050781 74.699219 133.730469 72.933594 133.722656 C 69.777344 133.710938 67.691406 135.929688 67.691406 139.070312 C 67.691406 144.535156 67.761719 150.003906 67.683594 155.46875 C 67.660156 157 68.199219 157.664062 69.667969 157.785156 C 71.058594 157.898438 72.441406 158.175781 73.835938 158.238281 C 75.207031 158.300781 75.695312 158.9375 75.675781 160.253906 C 75.640625 162.652344 75.769531 165.054688 75.679688 167.449219 C 75.621094 169.03125 76.171875 169.730469 77.777344 169.902344 C 84.59375 170.617188 91.390625 171.554688 98.21875 172.125 C 100.734375 172.332031 103.21875 172.664062 105.703125 173.019531 C 107.214844 173.234375 107.84375 172.640625 107.816406 171.203125 C 107.773438 168.808594 107.714844 166.414062 107.648438 164.015625 C 107.585938 161.761719 107.917969 161.511719 110.136719 161.769531 C 113.707031 162.179688 117.273438 162.636719 120.886719 162.019531 C 122.609375 161.726562 123.433594 160.847656 123.617188 159.136719 C 123.835938 157.078125 123.921875 155.019531 123.976562 152.953125 C 124.023438 151.292969 123.308594 150.503906 121.730469 150.800781 C 117.730469 151.542969 113.785156 150.933594 109.808594 150.589844 C 108.40625 150.46875 107.828125 150.097656 107.785156 148.605469 C 107.703125 145.808594 107.5625 143.023438 107.761719 140.21875 C 107.847656 138.984375 108.324219 138.371094 109.550781 138.351562 C 114.253906 138.289062 118.921875 137.300781 123.675781 138.097656 C 125.441406 138.394531 125.832031 139.011719 125.789062 140.621094 C 125.683594 144.683594 125.664062 148.753906 125.714844 152.816406 C 125.789062 158.875 125.910156 164.9375 126.101562 170.992188 C 126.160156 172.878906 125.667969 173.957031 123.558594 173.753906 C 123.046875 173.703125 122.511719 173.933594 121.984375 174.003906 C 117.363281 174.609375 117.363281 174.605469 117.339844 179.335938 C 117.316406 184.363281 117.304688 184.285156 112.390625 185.066406 C 107.199219 185.890625 102.171875 184.667969 97.113281 183.980469 C 93.675781 183.511719 90.226562 183.535156 86.785156 183.261719 C 84.769531 183.101562 83.542969 184.6875 83.636719 186.988281 C 83.683594 188.089844 83.902344 189.183594 84.039062 190.25 C 83.328125 190.589844 83.027344 190.199219 82.894531 189.742188 C 82.765625 189.304688 82.765625 188.824219 82.757812 188.359375 C 82.675781 183.578125 82.582031 183.882812 78.203125 182.503906 C 75.035156 181.507812 71.902344 180.75 68.617188 180.453125 C 67.5625 180.355469 67.480469 179.503906 67.480469 178.65625 C 67.480469 176.191406 67.386719 173.71875 67.492188 171.257812 C 67.5625 169.613281 66.886719 168.941406 65.3125 168.902344 C 64.652344 168.882812 64 168.625 63.339844 168.605469 C 59.09375 168.5 59.941406 167.714844 59.867188 164.695312 C 59.816406 162.761719 59.816406 160.828125 59.835938 158.898438 C 59.847656 157.855469 59.464844 157.304688 58.359375 157.207031 C 56.964844 157.082031 55.59375 156.71875 54.199219 156.648438 C 52.777344 156.574219 52.210938 156.039062 52.265625 154.566406 C 52.363281 151.96875 52.316406 149.367188 52.28125 146.769531 C 52.265625 145.605469 52.710938 145.089844 53.914062 145.054688 C 55.976562 144.988281 58.035156 144.714844 60.09375 144.679688 C 61.964844 144.644531 62.910156 144.054688 62.769531 141.96875 C 62.609375 139.648438 62.792969 137.304688 62.722656 134.972656 C 62.675781 133.46875 63.070312 132.636719 64.769531 132.503906 C 66.167969 132.394531 67.558594 132.261719 68.953125 132.300781 C 70.242188 132.335938 70.765625 131.839844 70.71875 130.539062 C 70.652344 128.742188 70.699219 126.941406 70.707031 125.140625 C 70.71875 121.707031 70.71875 121.707031 73.902344 121.441406 C 73.902344 118.476562 73.839844 115.527344 73.933594 112.582031 C 73.96875 111.472656 75.050781 111.609375 75.808594 111.574219 C 79.867188 111.382812 83.929688 111.238281 87.988281 111.0625 C 90.582031 110.949219 93.152344 110.671875 95.769531 110.878906 C 97.414062 111.007812 98.382812 111.605469 98.8125 113.140625 C 99.507812 115.617188 100.804688 117.210938 103.710938 116.855469 C 104.742188 116.730469 105.828125 117.085938 106.882812 117.042969 C 108.246094 116.984375 109.367188 117.28125 110.207031 118.421875 C 110.910156 119.371094 111.902344 119.578125 113.046875 119.511719 C 114.402344 119.433594 115.761719 119.492188 117.132812 119.691406 C 115.851562 120.882812 114.476562 121.464844 112.753906 121.359375 C 110.164062 121.199219 107.558594 121.214844 104.960938 121.195312 C 104.113281 121.191406 103.296875 121.011719 102.769531 120.394531 C 100.097656 117.246094 96.757812 117.957031 93.296875 118.617188 C 93.714844 119.960938 95.378906 120.148438 95.847656 121.867188 C 93.574219 122.214844 91.402344 122.316406 89.015625 122.136719 Z M 89.015625 122.136719 "/>
<path style=" stroke:none;fill-rule:nonzero;fill:rgb(0%,0%,0%);fill-opacity:1;" d="M 151.046875 222.777344 C 146.75 223.25 142.824219 221.882812 138.792969 221.503906 C 137.242188 221.359375 136.269531 221.339844 136.449219 223.242188 C 136.570312 224.496094 135.886719 225.066406 134.730469 225.222656 C 130.449219 225.808594 126.175781 226.726562 121.878906 226.890625 C 117.5 227.054688 113.203125 225.726562 108.855469 225.140625 C 106.222656 224.785156 103.617188 224.21875 100.984375 223.820312 C 99.96875 223.664062 99.457031 223.300781 99.460938 222.183594 C 99.488281 212.921875 99.476562 203.660156 99.488281 194.398438 C 99.488281 194.148438 99.597656 193.898438 99.65625 193.632812 C 100.691406 193.226562 101.671875 193.527344 102.640625 193.660156 C 106 194.125 109.347656 194.703125 112.722656 195.050781 C 114.195312 195.203125 114.652344 195.765625 114.628906 197.175781 C 114.558594 201.503906 114.683594 205.839844 114.523438 210.164062 C 114.453125 212.050781 115.15625 212.773438 116.90625 212.992188 C 119.746094 213.347656 122.5625 213.859375 125.402344 214.230469 C 127.53125 214.507812 127.851562 214.1875 127.851562 212.039062 C 127.859375 206.839844 127.878906 201.644531 127.828125 196.449219 C 127.8125 194.996094 128.191406 194.328125 129.804688 194.1875 C 133.378906 193.871094 136.941406 193.363281 140.488281 192.804688 C 142.226562 192.53125 142.953125 192.996094 142.917969 194.832031 C 142.851562 198.628906 143.046875 202.433594 142.871094 206.222656 C 142.769531 208.386719 143.679688 208.902344 145.59375 209.136719 C 150.9375 209.789062 156.25 210.691406 161.59375 211.386719 C 163.089844 211.582031 163.710938 212.179688 163.652344 213.679688 C 163.585938 215.40625 163.566406 217.148438 163.667969 218.875 C 163.761719 220.5 163.039062 221.085938 161.496094 221.273438 C 158.066406 221.6875 154.652344 222.25 151.046875 222.777344 Z M 151.046875 222.777344 "/>
<path style=" stroke:none;fill-rule:nonzero;fill:rgb(0%,0%,0%);fill-opacity:1;" d="M 121.925781 186.882812 C 121.332031 186.449219 120.691406 186.144531 121.011719 185.398438 C 121.273438 184.796875 121.867188 184.839844 122.402344 184.914062 C 128.898438 185.820312 135.234375 184.226562 141.628906 183.636719 C 147.644531 183.082031 153.644531 182.304688 159.648438 181.632812 C 160.164062 181.574219 160.792969 181.433594 161.019531 182.097656 C 161.234375 182.710938 160.8125 183.15625 160.308594 183.355469 C 157.992188 184.28125 156.234375 186.066406 154.082031 187.273438 C 151.128906 188.929688 148.222656 189.652344 144.964844 188.457031 C 142.667969 187.617188 140.25 187.722656 137.875 187.773438 C 134.355469 187.847656 130.835938 188.058594 127.324219 188.320312 C 125.378906 188.464844 123.621094 188.136719 121.925781 186.882812 Z M 121.925781 186.882812 "/>
<path style=" stroke:none;fill-rule:nonzero;fill:rgb(0%,0%,0%);fill-opacity:1;" d="M 159.601562 173.984375 C 157.457031 174.585938 155.492188 175.257812 153.480469 175.6875 C 150.605469 176.300781 147.71875 176.652344 144.808594 175.632812 C 142.886719 174.957031 140.859375 175.050781 138.867188 175.398438 C 137.214844 175.6875 135.546875 175.703125 133.882812 175.644531 C 132.855469 175.609375 131.765625 175.542969 130.976562 174.25 C 144.316406 173.640625 157.300781 171.296875 170.816406 170.394531 C 169.257812 173.226562 165.058594 175.003906 162.871094 174.167969 C 161.824219 173.769531 160.824219 173.613281 159.601562 173.984375 Z M 159.601562 173.984375 "/>
<path style=" stroke:none;fill-rule:nonzero;fill:rgb(0%,0%,0%);fill-opacity:1;" d="M 75.527344 135.28125 C 75.152344 134.035156 76.113281 134.402344 76.53125 134.410156 C 78.222656 134.445312 79.804688 134.253906 81.15625 133.085938 C 81.589844 132.714844 82.195312 132.355469 82.773438 132.832031 C 83.210938 133.191406 83.210938 133.765625 83.171875 134.304688 C 83.117188 135.097656 82.621094 135.546875 81.90625 135.582031 C 79.8125 135.695312 77.703125 136.035156 75.527344 135.28125 Z M 75.527344 135.28125 "/>
</g>
</svg>
